Coordinates
version=1
nRows=4
nColumns=63
inDegrees=yes

Units are S.I. units (second, meters, Newtons, ...)
If the header above contains a line with 'inDegrees', this indicates whether rotational values are in degrees (yes) or radians (no).

endheader
time	pelvis_tilt	pelvis_list	pelvis_rotation	pelvis_tx	pelvis_ty	pelvis_tz	hip_flexion_r	hip_adduction_r	hip_rotation_r	knee_angle_r	knee_angle_r_beta	ankle_angle_r	subtalar_angle_r	mtp_angle_r	hip_flexion_l	hip_adduction_l	hip_rotation_l	knee_angle_l	knee_angle_l_beta	ankle_angle_l	subtalar_angle_l	mtp_angle_l	L5_S1_Flex_Ext	L5_S1_Lat_Bending	L5_S1_axial_rotation	L4_L5_Flex_Ext	L4_L5_Lat_Bending	L4_L5_axial_rotation	L3_L4_Flex_Ext	L3_L4_Lat_Bending	L3_L4_axial_rotation	L2_L3_Flex_Ext	L2_L3_Lat_Bending	L2_L3_axial_rotation	L1_L2_Flex_Ext	L1_L2_Lat_Bending	L1_L2_axial_rotation	L1_T12_Flex_Ext	L1_T12_Lat_Bending	L1_T12_axial_rotation	Abs_r3	Abs_r2	Abs_r1	Abs_t1	Abs_t2	neck_flexion	neck_bending	neck_rotation	arm_flex_r	arm_add_r	arm_rot_r	elbow_flex_r	pro_sup_r	wrist_flex_r	wrist_dev_r	arm_flex_l	arm_add_l	arm_rot_l	elbow_flex_l	pro_sup_l	wrist_flex_l	wrist_dev_l
      2.73170732	     -2.00283438	      2.16619060	     98.01108920	      0.17675679	      0.79694924	      0.76466148	      0.94338838	      3.17508931	     -3.12517707	     10.43751406	      0.18216899	     32.52562821	     -9.80139154	      0.00000000	      0.81495164	     -1.00533919	     13.90697235	      5.27832322	      0.09212412	     35.42632137	     -2.82410075	      0.00000000	      0.04240927	      0.00583485	     -1.41100533	      0.07875825	      0.00776035	     -1.49919316	      0.06967419	      0.01418686	     -1.49919316	      0.04846955	      0.01418686	     -1.23462966	      0.03938125	      0.01189843	     -1.14644183	      0.02423266	      0.00903818	     -1.05825399	      0.30292516	      0.06600500	     -7.84758832	      0.00000000	      0.00000000	     25.62748211	      6.32132511	     -1.19872604	      7.35615476	    -20.67611404	    102.61539717	     17.89622998	     29.05942612	     -8.86536710	     -8.45600877	      2.65769943	    -12.79597507	    159.67198603	      1.26545406	      3.33889115	    -10.38821474	    -10.02550975
      2.75609756	     -2.17641717	      1.87877510	     97.01537586	      0.17843578	      0.79605782	      0.76709334	      1.26117525	      2.93535475	     -2.14042013	     10.20560640	      0.17812143	     32.21115706	     -9.34910178	      0.00000000	      0.39995246	     -1.02112449	     13.51961043	      3.75045191	      0.06545773	     34.73051746	     -2.76338292	      0.00000000	      0.02936774	     -0.00188932	     -1.27755566	      0.05453883	     -0.00251279	     -1.35740289	      0.04824826	     -0.00459368	     -1.35740289	      0.03356439	     -0.00459368	     -1.11786120	      0.02727088	     -0.00385269	     -1.03801397	      0.01678073	     -0.00292655	     -0.95816674	      0.20977082	     -0.02137232	     -7.10538131	      0.00000000	      0.00000000	     26.03322013	      7.63196188	     -0.87366245	      6.99520786	    -20.91730955	    103.71234790	     17.18745929	     23.84418476	     -7.18047021	     -9.29688753	      3.01574766	    -12.78320331	    170.89218297	      1.03159183	      6.54347205	    -13.11794655	     -5.70473289
      2.78048780	     -2.52919180	      1.47925543	     96.13845881	      0.18046246	      0.79486480	      0.76978841	      1.78791439	      2.51197452	     -1.47257579	     10.14211147	      0.17701324	     32.06755935	     -8.79589404	      0.00000000	      0.24216075	     -0.80014118	     14.58723357	      2.49054859	      0.04346827	     33.68836687	     -4.68168492	      0.00000000	      0.02895311	     -0.04364962	     -1.14632287	      0.05376882	     -0.05805400	     -1.21796805	      0.04756706	     -0.10612969	     -1.21796805	      0.03309051	     -0.10612969	     -1.00303251	      0.02688586	     -0.08901031	     -0.93138733	      0.01654381	     -0.06761326	     -0.85974215	      0.20680916	     -0.49377325	     -6.37550388	      0.00000000	      0.00000000	     26.40042129	      8.47673792	     -0.62192097	      7.85188507	    -19.27337813	    119.69630935	     13.75894615	      7.89132437	     -3.00721306	    -11.01212347	      3.48998582	    -12.85536688	    178.21743177	      0.94914474	     13.11324270	    -14.63057687	     -2.22850639
      2.80487805	     -2.66838075	      0.95072364	     95.15480392	      0.18194174	      0.79282342	      0.77284177	      2.55400909	      2.26155317	     -0.92279182	     10.15351338	      0.17721224	     32.15980146	     -7.91534999	      0.00000000	      0.47358514	     -0.74620172	     14.98268430	      1.63347894	      0.02850959	     33.25520363	     -5.81424580	      0.00000000	      0.04611431	     -0.04481030	     -0.96543893	      0.08563888	     -0.05959769	     -1.02577887	      0.07576120	     -0.10895175	     -1.02577887	      0.05270404	     -0.10895175	     -0.84475907	      0.04282175	     -0.09137715	     -0.78441913	      0.02634972	     -0.06941115	     -0.72407920	      0.32938990	     -0.50690302	     -5.36948172	      0.00000000	      0.00000000	     26.79749431	      8.33296432	      0.08684240	      7.83302747	    -18.99943676	    121.34147672	     12.33050168	      7.25811977	     -1.38378664	    -10.18054760	      4.10812112	    -12.63301996	    183.71124239	      0.90916716	     18.81444838	    -14.99088383	      0.27154136
